<svg width="13" height="16" viewBox="0 0 13 16" fill="none" xmlns="http://www.w3.org/2000/svg">
<path fill-rule="evenodd" clip-rule="evenodd" d="M6.49999 6.54998C7.25586 6.54998 7.98077 6.24971 8.51524 5.71523C9.04972 5.18075 9.34999 4.45584 9.34999 3.69998C9.34999 2.94411 9.04972 2.2192 8.51524 1.68472C7.98077 1.15024 7.25586 0.849976 6.49999 0.849976C5.74412 0.849976 5.01921 1.15024 4.48474 1.68472C3.95026 2.2192 3.64999 2.94411 3.64999 3.69998C3.64999 4.45584 3.95026 5.18075 4.48474 5.71523C5.01921 6.24971 5.74412 6.54998 6.49999 6.54998ZM2.46142 15.1C1.01917 15.1 -0.195735 13.8876 0.356192 12.5551C0.690386 11.7483 1.18022 11.0152 1.79773 10.3977C2.41524 9.7802 3.14833 9.29037 3.95515 8.95617C4.76196 8.62198 5.6267 8.44997 6.49999 8.44997C7.37328 8.44997 8.23802 8.62198 9.04484 8.95617C9.85165 9.29037 10.5847 9.7802 11.2022 10.3977C11.8198 11.0152 12.3096 11.7483 12.6438 12.5551C13.1957 13.8876 11.9808 15.1 10.5386 15.1H2.46142Z" fill="#001F7E"/>
</svg>
