<svg width="544" height="463" viewBox="0 0 544 463" fill="none" xmlns="http://www.w3.org/2000/svg">
<rect width="544" height="463" fill="#F5F5F5"/>
<path d="M399.649 318.039L359.927 296.118L328.726 339.768C346.954 354.069 377.577 364.469 393.401 361.293C425.875 354.776 491.498 268.096 500.604 261.497C531.602 239.032 541.678 230.506 502.89 247.963C465.909 264.606 485.496 247.963 476.436 247.963C465.551 248.677 469.158 257.759 473.198 264.267L399.649 318.039Z" fill="url(#paint0_linear_0_1)"/>
<path d="M174.267 284.83C185.474 277.514 229.756 264.336 249.204 258.661L269.779 260.771C282.743 263.793 310.549 268.944 323.34 273.819C336.131 278.693 359.343 294.239 380.998 307.203L376.269 322.6C371.438 338.331 359.147 350.658 343.432 355.538C339.387 379.718 335.899 419.03 336.475 431.217L185.989 431.108L179.1 371.273L148.111 374.394L121.934 355.538C154.711 302.24 160.259 293.976 174.267 284.83Z" fill="url(#paint1_linear_0_1)"/>
<path d="M131.216 422.323C83.5352 416.639 114.546 371.21 123 356.206C133.245 364.314 145.654 369.218 158.674 370.305L175.595 371.718L168.867 386.31L241.506 402.297L251.697 428.874C244.438 427.713 190.509 429.391 131.216 422.323Z" fill="url(#paint2_linear_0_1)"/>
<path d="M254.275 139.388C256.622 135.398 263.352 129.813 271.499 139.388H254.275Z" fill="#30235B"/>
<ellipse cx="258.187" cy="276.061" rx="25.9725" ry="17.3994" fill="#CF0606"/>
<path d="M236.906 275.126L240.536 241.142H275.881L279.941 275.126C278.522 279.128 271.822 287.246 259.416 287.246C243.603 287.246 237.919 279.128 236.906 275.126Z" fill="url(#paint3_linear_0_1)"/>
<mask id="mask0_0_1" style="mask-type:alpha" maskUnits="userSpaceOnUse" x="236" y="241" width="44" height="47">
<path d="M236.906 275.126L240.536 241.142H275.881L279.949 275.194C278.53 279.197 271.807 287.247 259.4 287.247C243.588 287.247 237.919 279.128 236.906 275.126Z" fill="url(#paint4_linear_0_1)"/>
</mask>
<g mask="url(#mask0_0_1)">
<path opacity="0.1" d="M288.619 242.443C256.66 279.617 238.801 249.727 229.576 245.244L235.915 220.113L273.757 215.865L288.619 242.443Z" fill="black"/>
</g>
<path d="M257.574 254.785C219.457 254.785 212.902 203.348 224.679 179.821C251.177 149.374 284.301 167.135 297.55 179.821C300.74 199.427 304.257 254.785 257.574 254.785Z" fill="url(#paint5_linear_0_1)"/>
<path d="M298.201 215.435L290.733 210.263L291.888 206.413L300.418 211.7L298.201 215.435Z" fill="#111111"/>
<path d="M220.396 213.935L227.864 208.763L226.709 204.913L218.179 210.2L220.396 213.935Z" fill="#111111"/>
<path d="M227.23 182.912C254.253 199.464 284.212 189.809 295.813 182.912C293.37 190.155 296.831 204.076 298.866 210.132C316.45 188.605 310.701 176.98 305.629 173.859C304.784 163.13 294.409 136.306 259.58 137.577C224.751 138.849 217.992 162.071 218.979 170.68C205.791 187.528 213.637 204.001 219.998 210.132C227.23 196.932 227.065 187.673 227.23 182.912Z" fill="#30235B"/>
<path opacity="0.5" d="M241.149 221.443C235.757 221.443 233.041 217.448 232.351 215.664C231.557 214.172 230.931 210.284 232.81 207.197C235.199 203.271 246.428 202.176 250.362 207.722C254.295 213.269 250.362 221.443 241.149 221.443Z" fill="#E6FCFF"/>
<path opacity="0.5" d="M276.88 221.443C282.273 221.443 284.988 217.448 285.678 215.664C286.472 214.172 287.099 210.284 285.22 207.197C282.831 203.271 271.601 202.176 267.668 207.722C263.734 213.269 267.668 221.443 276.88 221.443Z" fill="#E6FCFF"/>
<path fill-rule="evenodd" clip-rule="evenodd" d="M253.147 206.498C244.353 199.238 236.409 202.31 231.702 204.13C231.179 204.332 230.695 204.519 230.255 204.675L227.307 204.68C226.753 204.681 226.305 205.134 226.31 205.688L226.331 207.898C226.336 208.447 226.783 208.889 227.332 208.889L229.463 208.889C227.919 221.346 237.691 224.68 245.506 222.435C252.474 220.433 254.339 214.769 254.712 211.215C256.202 208.111 262.736 209.545 262.995 211.146C263.001 211.183 263.008 211.226 263.015 211.272C263.322 213.222 264.867 223.044 276.63 223.058C286.265 223.069 288.878 214.977 288.98 210.93L291.475 210.909C292.027 210.904 292.47 210.453 292.465 209.901L292.439 207.171C292.434 206.619 291.982 206.175 291.43 206.179L288.936 206.2C282.66 200.223 269.178 200.783 264.429 206.404C259.19 205.268 254.725 205.994 253.147 206.498ZM241.149 221.443C235.757 221.443 233.041 217.448 232.351 215.664C231.558 214.172 230.931 210.284 232.81 207.197C235.199 203.271 246.428 202.176 250.362 207.722C254.295 213.269 250.362 221.443 241.149 221.443ZM285.679 215.664C284.989 217.447 282.274 221.443 276.881 221.443C267.669 221.443 263.736 213.269 267.669 207.722C271.602 202.176 282.832 203.271 285.221 207.197C287.1 210.284 286.473 214.171 285.679 215.664Z" fill="#111111"/>
<path d="M182.801 426.176C182.801 425.654 183.224 425.232 183.746 425.232H338.303C339.216 425.232 339.956 425.972 339.956 426.884V426.884C339.956 429.623 337.736 431.842 334.998 431.842H188.468C185.338 431.842 182.801 429.305 182.801 426.176V426.176Z" fill="#B4B4B4"/>
<rect x="182.801" y="328.839" width="157.155" height="98.8475" rx="2.94666" fill="url(#paint6_linear_0_1)"/>
<ellipse cx="261.378" cy="378.263" rx="11.1765" ry="10.5069" fill="white"/>
<path fill-rule="evenodd" clip-rule="evenodd" d="M149.715 201.671C149.915 198.466 150.594 195.784 151.161 194.293C152.273 196.908 152.823 199.419 153.009 201.709C155.445 201.883 158.116 202.401 160.897 203.447C159.311 203.979 156.458 204.618 153.049 204.805C152.859 208.207 151.929 210.851 151.161 212.204C150.226 209.744 149.799 207.214 149.688 204.831C147.153 204.726 144.461 204.325 141.844 203.447C143.285 202.725 146.096 201.85 149.715 201.671Z" fill="url(#paint7_linear_0_1)"/>
<path fill-rule="evenodd" clip-rule="evenodd" d="M122.828 180.588C122.96 178.455 123.413 176.669 123.79 175.677C124.53 177.417 124.896 179.089 125.02 180.613C126.641 180.729 128.419 181.073 130.271 181.77C129.215 182.124 127.316 182.549 125.047 182.674C124.92 184.939 124.301 186.698 123.79 187.599C123.167 185.962 122.884 184.277 122.81 182.691C121.122 182.621 119.33 182.354 117.588 181.77C118.547 181.289 120.419 180.707 122.828 180.588Z" fill="url(#paint8_linear_0_1)"/>
<path fill-rule="evenodd" clip-rule="evenodd" d="M79.5044 165.567C79.7037 162.363 80.3833 159.68 80.9497 158.189C82.0625 160.804 82.6125 163.315 82.7985 165.605C85.234 165.78 87.9048 166.297 90.6866 167.343C89.1006 167.875 86.2472 168.514 82.8385 168.702C82.6484 172.104 81.7178 174.747 80.9497 176.101C80.0151 173.641 79.5886 171.11 79.4774 168.727C76.9422 168.622 74.2505 168.221 71.6336 167.343C73.0738 166.621 75.8855 165.746 79.5044 165.567Z" fill="url(#paint9_linear_0_1)"/>
<path fill-rule="evenodd" clip-rule="evenodd" d="M83.2134 239.215C83.5066 234.5 84.5065 230.554 85.3398 228.36C86.9769 232.208 87.7862 235.901 88.0598 239.27C91.643 239.527 95.5724 240.288 99.6651 241.827C97.3317 242.611 93.1337 243.55 88.1187 243.826C87.839 248.831 86.4698 252.72 85.3398 254.712C83.9648 251.093 83.3374 247.37 83.1737 243.863C79.4438 243.71 75.4836 243.12 71.6336 241.827C73.7524 240.765 77.8892 239.478 83.2134 239.215Z" fill="url(#paint10_linear_0_1)"/>
<ellipse cx="113.682" cy="211.337" rx="1.8414" ry="1.73109" fill="#2F235A"/>
<ellipse cx="155.94" cy="161.702" rx="1.8414" ry="1.73109" fill="#FE9076"/>
<ellipse cx="63.3205" cy="204.464" rx="1.8414" ry="1.73109" fill="#FFA400"/>
<ellipse cx="145.847" cy="238.036" rx="1.8414" ry="1.73109" fill="#23BB86"/>
<path d="M151.428 154.477C147.265 149.102 135.538 137.621 121.934 134.698" stroke="#FE9076" stroke-width="1.60277" stroke-linecap="round"/>
<path d="M55.5511 199.824C49.3979 196.546 33.6733 190.643 20 193.264" stroke="#FFA400" stroke-width="1.60277" stroke-linecap="round"/>
<path d="M139.527 243.064C136.374 245.679 128.788 253.107 123.669 261.895" stroke="#23BB86" stroke-width="1.60277" stroke-linecap="round"/>
<path fill-rule="evenodd" clip-rule="evenodd" d="M367.065 201.671C366.866 198.466 366.186 195.784 365.62 194.293C364.507 196.908 363.957 199.419 363.771 201.709C361.335 201.883 358.664 202.401 355.883 203.447C357.469 203.979 360.322 204.618 363.731 204.805C363.921 208.207 364.851 210.851 365.62 212.204C366.554 209.744 366.981 207.214 367.092 204.831C369.627 204.726 372.319 204.325 374.936 203.447C373.496 202.725 370.684 201.85 367.065 201.671Z" fill="url(#paint11_linear_0_1)"/>
<path fill-rule="evenodd" clip-rule="evenodd" d="M393.953 180.588C393.82 178.455 393.368 176.669 392.991 175.677C392.25 177.417 391.884 179.089 391.76 180.613C390.139 180.729 388.361 181.073 386.509 181.77C387.565 182.124 389.464 182.549 391.733 182.674C391.86 184.939 392.479 186.698 392.991 187.599C393.613 185.962 393.896 184.277 393.971 182.691C395.658 182.621 397.45 182.354 399.192 181.77C398.233 181.289 396.361 180.707 393.953 180.588Z" fill="url(#paint12_linear_0_1)"/>
<path fill-rule="evenodd" clip-rule="evenodd" d="M437.276 165.567C437.076 162.363 436.397 159.68 435.83 158.189C434.718 160.804 434.168 163.315 433.982 165.605C431.546 165.78 428.875 166.297 426.093 167.343C427.679 167.875 430.533 168.514 433.942 168.702C434.132 172.104 435.062 174.747 435.83 176.101C436.765 173.641 437.191 171.11 437.303 168.727C439.838 168.622 442.53 168.221 445.146 167.343C443.706 166.621 440.895 165.746 437.276 165.567Z" fill="url(#paint13_linear_0_1)"/>
<path fill-rule="evenodd" clip-rule="evenodd" d="M433.567 239.215C433.273 234.5 432.274 230.554 431.44 228.36C429.803 232.208 428.994 235.901 428.72 239.27C425.137 239.527 421.208 240.288 417.115 241.827C419.448 242.611 423.646 243.55 428.661 243.826C428.941 248.831 430.31 252.72 431.44 254.712C432.815 251.093 433.443 247.37 433.606 243.863C437.336 243.71 441.296 243.12 445.146 241.827C443.028 240.765 438.891 239.478 433.567 239.215Z" fill="url(#paint14_linear_0_1)"/>
<ellipse rx="1.8414" ry="1.73109" transform="matrix(-1 0 0 1 403.098 211.337)" fill="#2F235A"/>
<ellipse rx="1.8414" ry="1.73109" transform="matrix(-1 0 0 1 360.84 161.702)" fill="#FE9076"/>
<ellipse rx="1.8414" ry="1.73109" transform="matrix(-1 0 0 1 453.46 204.464)" fill="#FFA400"/>
<ellipse rx="1.8414" ry="1.73109" transform="matrix(-1 0 0 1 370.933 238.036)" fill="#23BB86"/>
<path d="M365.352 154.477C369.515 149.102 381.242 137.621 394.846 134.698" stroke="#FE9076" stroke-width="1.60277" stroke-linecap="round"/>
<path d="M461.229 199.824C467.382 196.546 483.107 190.643 496.78 193.264" stroke="#FFA400" stroke-width="1.60277" stroke-linecap="round"/>
<path d="M377.253 243.064C380.406 245.679 387.992 253.107 393.111 261.895" stroke="#23BB86" stroke-width="1.60277" stroke-linecap="round"/>
<path d="M288.426 94.7807C286.338 91.7486 282.112 93.4004 282.112 96.7034C282.112 99.1837 287.906 103.064 288.426 103.568C288.95 103.064 294.456 99.1837 294.456 96.7034C294.456 93.4254 290.518 91.7486 288.426 94.7807V94.7807Z" fill="#FFBCBC"/>
<path d="M302.084 98.3767C302.084 105.512 295.924 111.33 288.284 111.33C280.643 111.33 274.484 105.512 274.484 98.3767C274.484 91.2412 280.643 85.423 288.284 85.423C295.924 85.423 302.084 91.2412 302.084 98.3767Z" stroke="#F7F7F7" stroke-width="0.649684"/>
<path d="M238.903 76.6998C237.055 74.0162 233.315 75.4781 233.315 78.4014C233.315 80.5966 238.443 84.0305 238.903 84.477C239.367 84.0305 244.24 80.5966 244.24 78.4014C244.24 75.5003 240.755 74.0162 238.903 76.6998V76.6998Z" fill="#FFBCBC"/>
<path d="M250.991 79.8823C250.991 86.1975 245.54 91.3469 238.777 91.3469C232.015 91.3469 226.564 86.1975 226.564 79.8823C226.564 73.5671 232.015 68.4177 238.777 68.4177C245.54 68.4177 250.991 73.5671 250.991 79.8823Z" stroke="#F7F7F7" stroke-width="0.574998"/>
<path d="M271.586 56.9814C270.322 55.146 267.764 56.1459 267.764 58.1452C267.764 59.6465 271.271 61.9951 271.586 62.3004C271.903 61.9951 275.235 59.6465 275.235 58.1452C275.235 56.161 272.852 55.146 271.586 56.9814V56.9814Z" fill="#FFBCBC"/>
<path d="M279.853 59.158C279.853 63.4772 276.124 66.9989 271.499 66.9989C266.875 66.9989 263.146 63.4772 263.146 59.158C263.146 54.8388 266.875 51.317 271.499 51.317C276.124 51.317 279.853 54.8388 279.853 59.158Z" stroke="#F7F7F7" stroke-width="0.393259"/>
<path d="M213.856 46.768C212.822 45.2663 210.729 46.0844 210.729 47.7203C210.729 48.9488 213.598 50.8704 213.856 51.1203C214.115 50.8704 216.842 48.9488 216.842 47.7203C216.842 46.0968 214.892 45.2663 213.856 46.768V46.768Z" fill="#FFBCBC"/>
<path d="M220.62 48.549C220.62 52.0831 217.57 54.9647 213.785 54.9647C210.001 54.9647 206.951 52.0831 206.951 48.549C206.951 45.0148 210.001 42.1332 213.785 42.1332C217.57 42.1332 220.62 45.0148 220.62 48.549Z" stroke="#F7F7F7" stroke-width="0.321779"/>
<path d="M208.769 117.168C206.511 113.889 201.941 115.675 201.941 119.247C201.941 121.929 208.206 126.124 208.769 126.67C209.336 126.124 215.29 121.929 215.29 119.247C215.29 115.702 211.031 113.889 208.769 117.168V117.168Z" fill="#FFBCBC"/>
<path d="M223.538 121.056C223.538 128.772 216.878 135.064 208.615 135.064C200.353 135.064 193.693 128.772 193.693 121.056C193.693 113.34 200.353 107.049 208.615 107.049C216.878 107.049 223.538 113.34 223.538 121.056Z" stroke="#F7F7F7" stroke-width="0.702541"/>
<defs>
<linearGradient id="paint0_linear_0_1" x1="409.781" y1="190.809" x2="412.12" y2="356.145" gradientUnits="userSpaceOnUse">
<stop stop-color="#FFEFE0"/>
<stop offset="1" stop-color="#FFBE99"/>
</linearGradient>
<linearGradient id="paint1_linear_0_1" x1="261.275" y1="230.186" x2="250.313" y2="463.714" gradientUnits="userSpaceOnUse">
<stop stop-color="#FF9F81"/>
<stop offset="1" stop-color="#F53838"/>
</linearGradient>
<linearGradient id="paint2_linear_0_1" x1="246.21" y1="312.233" x2="130.383" y2="371.282" gradientUnits="userSpaceOnUse">
<stop offset="0.0677966" stop-color="#FFEFE0"/>
<stop offset="1" stop-color="#FFBE99"/>
</linearGradient>
<linearGradient id="paint3_linear_0_1" x1="257.204" y1="204.585" x2="259.043" y2="267.001" gradientUnits="userSpaceOnUse">
<stop stop-color="#FFEFE0"/>
<stop offset="1" stop-color="#FFBE99"/>
</linearGradient>
<linearGradient id="paint4_linear_0_1" x1="257.204" y1="204.585" x2="254.629" y2="275.697" gradientUnits="userSpaceOnUse">
<stop stop-color="#FFEFE0"/>
<stop offset="1" stop-color="#FFBE99"/>
</linearGradient>
<linearGradient id="paint5_linear_0_1" x1="260.661" y1="171.313" x2="260.661" y2="246.256" gradientUnits="userSpaceOnUse">
<stop stop-color="#FFEFE0"/>
<stop offset="1" stop-color="#FFBE99"/>
</linearGradient>
<linearGradient id="paint6_linear_0_1" x1="293.829" y1="254.654" x2="242.043" y2="452.313" gradientUnits="userSpaceOnUse">
<stop offset="0.0171777" stop-color="white"/>
<stop offset="1" stop-color="#D7D7D7"/>
</linearGradient>
<linearGradient id="paint7_linear_0_1" x1="151.371" y1="196.199" x2="151.371" y2="213.017" gradientUnits="userSpaceOnUse">
<stop stop-color="#FFE89E"/>
<stop offset="1" stop-color="#FFBF1A"/>
</linearGradient>
<linearGradient id="paint8_linear_0_1" x1="123.93" y1="176.946" x2="123.93" y2="188.14" gradientUnits="userSpaceOnUse">
<stop stop-color="#FFE89E"/>
<stop offset="1" stop-color="#FFBF1A"/>
</linearGradient>
<linearGradient id="paint9_linear_0_1" x1="81.1601" y1="160.096" x2="81.1601" y2="176.914" gradientUnits="userSpaceOnUse">
<stop stop-color="#FFE89E"/>
<stop offset="1" stop-color="#FFBF1A"/>
</linearGradient>
<linearGradient id="paint10_linear_0_1" x1="85.6494" y1="231.165" x2="85.6494" y2="255.908" gradientUnits="userSpaceOnUse">
<stop stop-color="#FFE89E"/>
<stop offset="1" stop-color="#FFBF1A"/>
</linearGradient>
<linearGradient id="paint11_linear_0_1" x1="365.409" y1="196.199" x2="365.409" y2="213.017" gradientUnits="userSpaceOnUse">
<stop stop-color="#FFE89E"/>
<stop offset="1" stop-color="#FFBF1A"/>
</linearGradient>
<linearGradient id="paint12_linear_0_1" x1="392.85" y1="176.946" x2="392.85" y2="188.14" gradientUnits="userSpaceOnUse">
<stop stop-color="#FFE89E"/>
<stop offset="1" stop-color="#FFBF1A"/>
</linearGradient>
<linearGradient id="paint13_linear_0_1" x1="435.62" y1="160.096" x2="435.62" y2="176.914" gradientUnits="userSpaceOnUse">
<stop stop-color="#FFE89E"/>
<stop offset="1" stop-color="#FFBF1A"/>
</linearGradient>
<linearGradient id="paint14_linear_0_1" x1="431.131" y1="231.165" x2="431.131" y2="255.908" gradientUnits="userSpaceOnUse">
<stop stop-color="#FFE89E"/>
<stop offset="1" stop-color="#FFBF1A"/>
</linearGradient>
</defs>
</svg>
